<?xml version="1.0" encoding="UTF-8"?>
<!DOCTYPE svg PUBLIC "-//W3C//DTD SVG 1.1//EN" "http://www.w3.org/Graphics/SVG/1.1/DTD/svg11.dtd">
<svg xmlns="http://www.w3.org/2000/svg" version="1.1" width="215px" height="112px" style="shape-rendering:geometricPrecision; text-rendering:geometricPrecision; image-rendering:optimizeQuality; fill-rule:evenodd; clip-rule:evenodd" xmlns:xlink="http://www.w3.org/1999/xlink">
<g><path style="opacity:0.102" fill="#050505" d="M 41.5,9.5 C 49.6902,9.15898 54.8569,12.8257 57,20.5C 57.3624,26.9679 54.1957,29.9679 47.5,29.5C 44.1725,28.7762 40.8392,28.6096 37.5,29C 34.5674,30.2709 31.9007,31.9376 29.5,34C 36.0741,38.1194 43.0741,41.4527 50.5,44C 52.7032,46.3722 55.0365,48.5389 57.5,50.5C 57.4938,59.9041 56.8272,69.2374 55.5,78.5C 52.0359,81.4625 48.7025,84.6291 45.5,88C 38.837,90.6687 32.0036,92.502 25,93.5C 22.6494,92.2857 20.1494,91.4523 17.5,91C 15.644,88.3103 13.3106,86.1437 10.5,84.5C 9.75415,83.2638 9.42082,81.9305 9.5,80.5C 11.1667,80.5 12.8333,80.5 14.5,80.5C 14.2322,82.099 14.5655,83.4324 15.5,84.5C 17.912,84.3305 20.0786,84.9972 22,86.5C 28.4674,85.6832 34.6341,83.8499 40.5,81C 44.3333,78.5 47.5,75.3333 50,71.5C 51.9028,69.559 52.7361,67.2257 52.5,64.5C 53.6433,61.0242 53.8099,57.3575 53,53.5C 50.3309,50.3257 47.8309,46.9924 45.5,43.5C 38.6697,41.2436 32.0031,38.7436 25.5,36C 23.3341,34.322 22.0007,32.1553 21.5,29.5C 22.5,28.8333 23.5,28.1667 24.5,27.5C 28.7606,23.5325 33.7606,21.5325 39.5,21.5C 39.8333,21.5 40.1667,21.5 40.5,21.5C 42.9597,22.1731 45.4597,22.5064 48,22.5C 49.7324,22.2664 50.5658,21.2664 50.5,19.5C 50,17.5 49.5,15.5 49,13.5C 46.5828,11.8724 44.0828,10.539 41.5,9.5 Z"/></g>
<g><path style="opacity:0.83" fill="#afafaf" d="M 41.5,9.5 C 44.0828,10.539 46.5828,11.8724 49,13.5C 49.5,15.5 50,17.5 50.5,19.5C 50.5658,21.2664 49.7324,22.2664 48,22.5C 45.4597,22.5064 42.9597,22.1731 40.5,21.5C 43.1667,21.1667 45.8333,20.8333 48.5,20.5C 48.8857,15.442 46.5524,12.6086 41.5,12C 28.3332,10.1893 18.4999,15.0226 12,26.5C 11.3333,30.8333 11.3333,35.1667 12,39.5C 13.045,40.3734 13.8783,41.3734 14.5,42.5C 12.9382,42.2671 11.6049,41.6005 10.5,40.5C 6.78995,24.7683 12.79,14.6016 28.5,10C 32.8206,9.50098 37.1539,9.33432 41.5,9.5 Z"/></g>
<g><path style="opacity:0.62" fill="#bdbdbd" d="M 39.5,21.5 C 33.7606,21.5325 28.7606,23.5325 24.5,27.5C 23.4265,26.7494 23.2599,25.7494 24,24.5C 25.4095,23.2125 26.9095,22.0458 28.5,21C 28.2716,20.6012 27.9382,20.4346 27.5,20.5C 27.9704,19.3065 28.9704,18.6399 30.5,18.5C 32.7454,19.9736 35.7454,20.9736 39.5,21.5 Z"/></g>
<g><path style="opacity:0.106" fill="#060606" d="M 69.5,21.5 C 71.9032,21.393 73.7365,22.393 75,24.5C 76.2367,28.0601 76.7367,31.7267 76.5,35.5C 75.3382,39.4489 74.6715,43.6155 74.5,48C 75.3465,57.8152 75.6798,67.6485 75.5,77.5C 74.6728,81.3628 73.8394,85.3628 73,89.5C 68.4179,93.0757 63.5846,93.2424 58.5,90C 56.5494,88.2658 55.5494,86.0991 55.5,83.5C 59.0414,85.4093 61.2081,84.4093 62,80.5C 62.4935,82.1341 62.6602,83.8008 62.5,85.5C 63.8333,85.5 65.1667,85.5 66.5,85.5C 67.9302,77.5751 68.5969,69.5751 68.5,61.5C 69.8333,53.5 69.8333,45.5 68.5,37.5C 68.5,36.5 68.5,35.5 68.5,34.5C 68.5,33.8333 68.5,33.1667 68.5,32.5C 68.5,32.1667 68.5,31.8333 68.5,31.5C 69.8799,31.0377 70.5466,30.0377 70.5,28.5C 69.7766,26.2178 69.4433,23.8845 69.5,21.5 Z"/></g>
<g><path style="opacity:0.111" fill="#020202" d="M 84.5,23.5 C 87.8078,22.9738 89.9745,24.3072 91,27.5C 92.89,33.0095 93.7233,38.6762 93.5,44.5C 91.6371,48.755 89.9704,53.0883 88.5,57.5C 87.7784,57.9175 87.2784,58.5842 87,59.5C 86.8299,49.991 86.3299,40.6577 85.5,31.5C 84.8902,30.609 84.5569,29.609 84.5,28.5C 84.5,26.8333 84.5,25.1667 84.5,23.5 Z"/></g>
<g><path style="opacity:0.099" fill="#020202" d="M 115.5,28.5 C 117.582,28.472 119.416,29.1387 121,30.5C 122.836,34.8456 124.336,39.179 125.5,43.5C 123.559,47.7181 121.892,52.0515 120.5,56.5C 119.833,53.8333 119.167,51.1667 118.5,48.5C 118.813,44.9581 118.479,41.6248 117.5,38.5C 117.737,37.209 117.404,36.209 116.5,35.5C 116.326,33.139 115.993,30.8056 115.5,28.5 Z"/></g>
<g><path style="opacity:0.449" fill="#747474" d="M 27.5,20.5 C 27.9382,20.4346 28.2716,20.6012 28.5,21C 26.9095,22.0458 25.4095,23.2125 24,24.5C 23.2599,25.7494 23.4265,26.7494 24.5,27.5C 23.5,28.1667 22.5,28.8333 21.5,29.5C 20.0221,30.4475 19.0221,31.7809 18.5,33.5C 17.6765,31.5454 17.5099,29.5454 18,27.5C 20.7517,24.5471 23.9184,22.2137 27.5,20.5 Z"/></g>
<g><path style="opacity:0.995" fill="#e9e9e9" d="M 68.5,31.5 C 68.5,31.8333 68.5,32.1667 68.5,32.5C 66.396,32.7989 64.396,32.4656 62.5,31.5C 58.7504,25.5572 60.7504,22.8905 68.5,23.5C 68.5,26.1667 68.5,28.8333 68.5,31.5 Z"/></g>
<g><path style="opacity:0.102" fill="#070707" d="M 145.5,28.5 C 149.138,28.7377 151.971,30.4044 154,33.5C 155.46,36.7478 156.626,40.0812 157.5,43.5C 155.397,51.2196 155.063,58.8862 156.5,66.5C 155.88,79.5406 161.88,85.8739 174.5,85.5C 183.824,86.5076 190.49,82.8409 194.5,74.5C 196.803,71.9542 198.303,69.2875 199,66.5C 199.818,60.6513 199.652,54.9846 198.5,49.5C 199.244,46.0504 197.91,44.3838 194.5,44.5C 194.884,42.3352 194.217,40.6685 192.5,39.5C 191.83,41.2914 191.163,42.9581 190.5,44.5C 190.196,41.4781 189.696,38.4781 189,35.5C 188.617,34.944 188.117,34.6107 187.5,34.5C 186.889,32.2254 185.555,30.5588 183.5,29.5C 186.425,29.4598 189.091,30.2932 191.5,32C 196.031,37.8574 200.531,43.6907 205,49.5C 208.665,64.5143 205.165,77.3477 194.5,88C 187.748,92.0507 180.415,93.7173 172.5,93C 167.332,92.166 163.165,89.666 160,85.5C 159.667,89.1667 159.333,92.8333 159,96.5C 157.171,102.158 153.337,103.992 147.5,102C 145.549,100.266 144.549,98.0991 144.5,95.5C 146.611,96.7416 148.611,96.7416 150.5,95.5C 151.644,91.0363 152.31,86.3696 152.5,81.5C 152.5,80.5 152.5,79.5 152.5,78.5C 153.658,69.3425 153.824,60.0092 153,50.5C 152.18,45.1762 150.68,40.1762 148.5,35.5C 147.773,33.0462 146.773,30.7128 145.5,28.5 Z M 185.5,54.5 C 185.15,57.4534 186.15,59.7867 188.5,61.5C 187.441,67.1608 184.108,71.4941 178.5,74.5C 175.486,70.8073 173.819,66.474 173.5,61.5C 174.753,58.007 175.587,54.3403 176,50.5C 176.689,49.6433 177.522,48.9767 178.5,48.5C 180.878,50.552 183.211,52.552 185.5,54.5 Z"/></g>
<g><path style="opacity:0.463" fill="#999999" d="M 69.5,21.5 C 69.4433,23.8845 69.7766,26.2178 70.5,28.5C 70.5466,30.0377 69.8799,31.0377 68.5,31.5C 68.5,28.8333 68.5,26.1667 68.5,23.5C 60.7504,22.8905 58.7504,25.5572 62.5,31.5C 64.396,32.4656 66.396,32.7989 68.5,32.5C 68.5,33.1667 68.5,33.8333 68.5,34.5C 65.2869,34.81 62.2869,34.4767 59.5,33.5C 55.9702,23.5983 59.3036,19.5983 69.5,21.5 Z"/></g>
<g><path style="opacity:0.999" fill="#f0f0f0" d="M 40.5,21.5 C 40.1667,21.5 39.8333,21.5 39.5,21.5C 35.7454,20.9736 32.7454,19.9736 30.5,18.5C 28.9704,18.6399 27.9704,19.3065 27.5,20.5C 23.9184,22.2137 20.7517,24.5471 18,27.5C 17.5099,29.5454 17.6765,31.5454 18.5,33.5C 19.1408,34.4822 19.8075,35.4822 20.5,36.5C 24.586,38.8752 28.9194,40.7085 33.5,42C 34.1667,43 34.8333,44 35.5,45C 46.6869,46.8806 52.3536,53.3806 52.5,64.5C 52.7361,67.2257 51.9028,69.559 50,71.5C 47.5,75.3333 44.3333,78.5 40.5,81C 34.6341,83.8499 28.4674,85.6832 22,86.5C 20.0786,84.9972 17.912,84.3305 15.5,84.5C 14.5793,81.0612 13.746,77.7279 13,74.5C 18.083,73.6929 23.2497,73.1929 28.5,73C 33.9539,69.88 38.4539,65.7134 42,60.5C 42.7891,58.2884 42.6225,56.2884 41.5,54.5C 32.1565,51.3294 23.1565,47.3294 14.5,42.5C 13.8783,41.3734 13.045,40.3734 12,39.5C 11.3333,35.1667 11.3333,30.8333 12,26.5C 18.4999,15.0226 28.3332,10.1893 41.5,12C 46.5524,12.6086 48.8857,15.442 48.5,20.5C 45.8333,20.8333 43.1667,21.1667 40.5,21.5 Z"/></g>
<g><path style="opacity:0.999" fill="#f6f6f6" d="M 84.5,28.5 C 84.5569,29.609 84.8902,30.609 85.5,31.5C 85.3335,41.1724 85.5002,50.8391 86,60.5C 86.414,60.9574 86.914,61.2907 87.5,61.5C 88.4287,60.3112 88.762,58.9778 88.5,57.5C 89.4959,57.5858 90.3292,57.2524 91,56.5C 91.0821,53.2519 92.5821,50.9186 95.5,49.5C 96.3851,45.7091 98.7184,43.2091 102.5,42C 104.513,37.5095 107.846,34.6762 112.5,33.5C 114.114,33.8029 115.448,34.4695 116.5,35.5C 117.404,36.209 117.737,37.209 117.5,38.5C 117.5,46.5 117.5,54.5 117.5,62.5C 119.167,62.5 120.833,62.5 122.5,62.5C 122.797,58.6743 124.63,55.6743 128,53.5C 129.667,48.8333 131.333,44.1667 133,39.5C 135.287,36.5379 138.12,34.3712 141.5,33C 142.833,32.3333 144.167,32.3333 145.5,33C 146.078,34.417 147.078,35.2504 148.5,35.5C 149.247,42.5624 150.414,49.5624 152,56.5C 152.5,63.8258 152.666,71.1591 152.5,78.5C 152.5,79.5 152.5,80.5 152.5,81.5C 151.168,85.2639 150.335,89.2639 150,93.5C 148.753,78.879 148.086,64.2123 148,49.5C 147.943,47.0898 146.776,45.7565 144.5,45.5C 144.565,45.0618 144.399,44.7284 144,44.5C 142.482,45.1634 141.315,46.1634 140.5,47.5C 134.52,58.4599 129.353,69.7933 125,81.5C 122.588,85.3063 119.421,86.3063 115.5,84.5C 113.529,81.2106 112.363,77.5439 112,73.5C 111.667,68.1667 111.333,62.8333 111,57.5C 110.02,56.0186 108.853,54.6853 107.5,53.5C 106.893,53.6236 106.56,53.9569 106.5,54.5C 105.662,54.8417 105.328,55.5084 105.5,56.5C 101.828,62.3531 98.328,68.3531 95,74.5C 92.9579,77.9405 90.4579,80.9405 87.5,83.5C 85.8333,83.5 84.1667,83.5 82.5,83.5C 81.1511,72.3276 79.8177,61.161 78.5,50C 78.7978,47.1523 79.1312,44.3189 79.5,41.5C 80.065,36.8507 80.565,32.184 81,27.5C 81.414,27.0426 81.914,26.7093 82.5,26.5C 83.1818,27.2427 83.8485,27.9094 84.5,28.5 Z"/></g>
<g><path style="opacity:0.999" fill="#f0f0f0" d="M 186.5,42.5 C 185.469,41.7515 184.302,41.0848 183,40.5C 182.667,41.8333 182.333,43.1667 182,44.5C 181.617,43.944 181.117,43.6107 180.5,43.5C 179.077,41.2886 177.077,40.4553 174.5,41C 172.158,42.7281 169.825,44.3948 167.5,46C 165.859,47.129 164.859,48.629 164.5,50.5C 162.75,54.1829 162.083,58.1829 162.5,62.5C 162.875,65.9067 161.875,66.4067 159.5,64C 158.873,62.2622 158.54,60.4289 158.5,58.5C 158.838,53.4938 160.171,48.8271 162.5,44.5C 162.427,42.9731 163.094,41.9731 164.5,41.5C 170.045,33.0972 177.378,31.2639 186.5,36C 188.886,38.4894 188.886,40.6561 186.5,42.5 Z"/></g>
<g><path style="opacity:0.284" fill="#ababab" d="M 84.5,23.5 C 84.5,25.1667 84.5,26.8333 84.5,28.5C 83.8485,27.9094 83.1818,27.2427 82.5,26.5C 81.914,26.7093 81.414,27.0426 81,27.5C 80.565,32.184 80.065,36.8507 79.5,41.5C 77.3199,43.0313 76.3199,45.1979 76.5,48C 77.1313,59.1956 77.798,70.3622 78.5,81.5C 77.8333,81.5 77.1667,81.5 76.5,81.5C 75.5655,80.4324 75.2322,79.099 75.5,77.5C 75.6798,67.6485 75.3465,57.8152 74.5,48C 74.6715,43.6155 75.3382,39.4489 76.5,35.5C 77.3213,32.3586 77.8213,29.0252 78,25.5C 79.7889,23.771 81.9556,23.1043 84.5,23.5 Z"/></g>
<g><path style="opacity:0.071" fill="#050505" d="M 10.5,40.5 C 11.6049,41.6005 12.9382,42.2671 14.5,42.5C 23.1565,47.3294 32.1565,51.3294 41.5,54.5C 41.2503,56.674 40.2503,58.3406 38.5,59.5C 28.0947,56.7151 18.928,51.7151 11,44.5C 10.51,43.2068 10.3433,41.8734 10.5,40.5 Z"/></g>
<g><path style="opacity:0.459" fill="#888888" d="M 85.5,31.5 C 86.3299,40.6577 86.8299,49.991 87,59.5C 87.2784,58.5842 87.7784,57.9175 88.5,57.5C 88.762,58.9778 88.4287,60.3112 87.5,61.5C 86.914,61.2907 86.414,60.9574 86,60.5C 85.5002,50.8391 85.3335,41.1724 85.5,31.5 Z"/></g>
<g><path style="opacity:0.519" fill="#b7b7b7" d="M 115.5,28.5 C 115.993,30.8056 116.326,33.139 116.5,35.5C 115.448,34.4695 114.114,33.8029 112.5,33.5C 107.846,34.6762 104.513,37.5095 102.5,42C 98.7184,43.2091 96.3851,45.7091 95.5,49.5C 92.5821,50.9186 91.0821,53.2519 91,56.5C 90.3292,57.2524 89.4959,57.5858 88.5,57.5C 89.9704,53.0883 91.6371,48.755 93.5,44.5C 96.924,39.8986 100.591,35.3986 104.5,31C 107.923,29.0961 111.59,28.2628 115.5,28.5 Z"/></g>
<g><path style="opacity:0.091" fill="#0f0f0f" d="M 180.5,43.5 C 180.5,44.5 180.5,45.5 180.5,46.5C 181.5,46.5 182.5,46.5 183.5,46.5C 183.238,45.0222 183.571,43.6888 184.5,42.5C 185.491,46.4454 185.824,50.4454 185.5,54.5C 183.211,52.552 180.878,50.552 178.5,48.5C 177.522,48.9767 176.689,49.6433 176,50.5C 175.587,54.3403 174.753,58.007 173.5,61.5C 173.819,66.474 175.486,70.8073 178.5,74.5C 177.395,75.6005 176.062,76.2671 174.5,76.5C 173.009,74.7182 171.342,73.0516 169.5,71.5C 169.204,69.597 168.537,67.9303 167.5,66.5C 167.284,60.9467 166.284,55.6133 164.5,50.5C 164.859,48.629 165.859,47.129 167.5,46C 169.825,44.3948 172.158,42.7281 174.5,41C 177.077,40.4553 179.077,41.2886 180.5,43.5 Z"/></g>
<g><path style="opacity:0.415" fill="#b2b2b2" d="M 145.5,28.5 C 146.773,30.7128 147.773,33.0462 148.5,35.5C 147.078,35.2504 146.078,34.417 145.5,33C 144.167,32.3333 142.833,32.3333 141.5,33C 138.12,34.3712 135.287,36.5379 133,39.5C 131.333,44.1667 129.667,48.8333 128,53.5C 124.63,55.6743 122.797,58.6743 122.5,62.5C 120.833,62.5 119.167,62.5 117.5,62.5C 117.5,54.5 117.5,46.5 117.5,38.5C 118.479,41.6248 118.813,44.9581 118.5,48.5C 118.335,52.1817 118.501,55.8484 119,59.5C 120.039,58.7562 120.539,57.7562 120.5,56.5C 121.892,52.0515 123.559,47.7181 125.5,43.5C 128.758,33.9031 135.425,28.9031 145.5,28.5 Z"/></g>
<g><path style="opacity:0.963" fill="#d4d4d4" d="M 187.5,34.5 C 188.117,34.6107 188.617,34.944 189,35.5C 189.696,38.4781 190.196,41.4781 190.5,44.5C 192.148,45.9265 194.148,46.7599 196.5,47C 197.252,47.6708 197.586,48.5041 197.5,49.5C 195.703,48.2702 193.703,47.6036 191.5,47.5C 191.579,48.9305 191.246,50.2638 190.5,51.5C 196.062,63.4719 192.728,72.1386 180.5,77.5C 184.47,74.3613 187.97,70.6947 191,66.5C 191.667,62.5 191.667,58.5 191,54.5C 189.644,53.6198 188.144,53.2865 186.5,53.5C 186.5,49.8333 186.5,46.1667 186.5,42.5C 188.886,40.6561 188.886,38.4894 186.5,36C 177.378,31.2639 170.045,33.0972 164.5,41.5C 166.983,32.1583 172.983,28.6583 182.5,31C 184.323,31.9973 185.99,33.1639 187.5,34.5 Z"/></g>
<g><path style="opacity:0.494" fill="#8d8d8d" d="M 198.5,49.5 C 198.167,49.5 197.833,49.5 197.5,49.5C 197.586,48.5041 197.252,47.6708 196.5,47C 194.148,46.7599 192.148,45.9265 190.5,44.5C 191.163,42.9581 191.83,41.2914 192.5,39.5C 194.217,40.6685 194.884,42.3352 194.5,44.5C 197.91,44.3838 199.244,46.0504 198.5,49.5 Z"/></g>
<g><path style="opacity:0.839" fill="#a6a6a6" d="M 183.5,29.5 C 185.555,30.5588 186.889,32.2254 187.5,34.5C 185.99,33.1639 184.323,31.9973 182.5,31C 172.983,28.6583 166.983,32.1583 164.5,41.5C 163.094,41.9731 162.427,42.9731 162.5,44.5C 160.919,46.6737 159.419,49.0071 158,51.5C 157.088,56.4636 156.588,61.4636 156.5,66.5C 155.063,58.8862 155.397,51.2196 157.5,43.5C 160.59,37.2417 165.257,32.4084 171.5,29C 175.587,28.2375 179.587,28.4042 183.5,29.5 Z"/></g>
<g><path style="opacity:1" fill="#cdcdcd" d="M 21.5,29.5 C 22.0007,32.1553 23.3341,34.322 25.5,36C 32.0031,38.7436 38.6697,41.2436 45.5,43.5C 47.8309,46.9924 50.3309,50.3257 53,53.5C 53.8099,57.3575 53.6433,61.0242 52.5,64.5C 52.3536,53.3806 46.6869,46.8806 35.5,45C 34.8333,44 34.1667,43 33.5,42C 28.9194,40.7085 24.586,38.8752 20.5,36.5C 19.8075,35.4822 19.1408,34.4822 18.5,33.5C 19.0221,31.7809 20.0221,30.4475 21.5,29.5 Z"/></g>
<g><path style="opacity:0.12" fill="#060606" d="M 140.5,47.5 C 141.601,53.3441 141.601,59.3441 140.5,65.5C 136.871,72.5265 133.704,79.8598 131,87.5C 125.56,93.0863 119.394,93.9196 112.5,90C 109.024,86.5476 107.024,82.3809 106.5,77.5C 107.709,79.9408 109.376,81.9408 111.5,83.5C 112.568,84.4345 113.901,84.7678 115.5,84.5C 119.421,86.3063 122.588,85.3063 125,81.5C 129.353,69.7933 134.52,58.4599 140.5,47.5 Z"/></g>
<g><path style="opacity:0.329" fill="#3c3c3c" d="M 118.5,48.5 C 119.167,51.1667 119.833,53.8333 120.5,56.5C 120.539,57.7562 120.039,58.7562 119,59.5C 118.501,55.8484 118.335,52.1817 118.5,48.5 Z"/></g>
<g><path style="opacity:0.747" fill="#bcbcbc" d="M 198.5,49.5 C 199.652,54.9846 199.818,60.6513 199,66.5C 198.303,69.2875 196.803,71.9542 194.5,74.5C 193.715,70.3604 194.881,67.027 198,64.5C 198.499,59.5111 198.666,54.5111 198.5,49.5 Z"/></g>
<g><path style="opacity:0.413" fill="#989898" d="M 144.5,45.5 C 145.09,46.766 145.59,48.0993 146,49.5C 146.267,64.8503 146.767,80.1836 147.5,95.5C 148.5,95.5 149.5,95.5 150.5,95.5C 148.611,96.7416 146.611,96.7416 144.5,95.5C 144.334,85.3148 143,75.3148 140.5,65.5C 141.601,59.3441 141.601,53.3441 140.5,47.5C 141.315,46.1634 142.482,45.1634 144,44.5C 144.399,44.7284 144.565,45.0618 144.5,45.5 Z"/></g>
<g><path style="opacity:0.03" fill="#010101" d="M 185.5,54.5 C 186.833,54.5 188.167,54.5 189.5,54.5C 189.802,57.0593 189.468,59.3926 188.5,61.5C 186.15,59.7867 185.15,57.4534 185.5,54.5 Z"/></g>
<g><path style="opacity:1" fill="#dcdcdc" d="M 79.5,41.5 C 79.1312,44.3189 78.7978,47.1523 78.5,50C 79.8177,61.161 81.1511,72.3276 82.5,83.5C 84.1667,83.5 85.8333,83.5 87.5,83.5C 86.3588,84.339 85.0255,85.0057 83.5,85.5C 81.8152,84.0473 80.1486,82.714 78.5,81.5C 77.798,70.3622 77.1313,59.1956 76.5,48C 76.3199,45.1979 77.3199,43.0313 79.5,41.5 Z"/></g>
<g><path style="opacity:0.902" fill="#c9c9c9" d="M 59.5,33.5 C 62.2869,34.4767 65.2869,34.81 68.5,34.5C 68.5,35.5 68.5,36.5 68.5,37.5C 65.7415,35.9521 63.2415,36.2854 61,38.5C 60.0299,49.2476 60.5299,59.9143 62.5,70.5C 62.2132,72.4864 61.5465,74.3197 60.5,76C 61.0556,77.0111 61.7222,77.8444 62.5,78.5C 61.1497,79.4831 60.1497,80.8164 59.5,82.5C 59.1667,79.8333 58.8333,77.1667 58.5,74.5C 59.6821,61.4348 59.6821,48.4348 58.5,35.5C 58.3284,34.5084 58.6618,33.8417 59.5,33.5 Z"/></g>
<g><path style="opacity:0.12" fill="#070707" d="M 105.5,56.5 C 106.488,61.6405 106.821,66.9738 106.5,72.5C 102.53,77.0836 99.0299,82.0836 96,87.5C 89.0741,93.2605 82.7407,92.5938 77,85.5C 76.51,84.2068 76.3433,82.8734 76.5,81.5C 77.1667,81.5 77.8333,81.5 78.5,81.5C 80.1486,82.714 81.8152,84.0473 83.5,85.5C 85.0255,85.0057 86.3588,84.339 87.5,83.5C 90.4579,80.9405 92.9579,77.9405 95,74.5C 98.328,68.3531 101.828,62.3531 105.5,56.5 Z"/></g>
<g><path style="opacity:0.963" fill="#bababa" d="M 164.5,50.5 C 166.284,55.6133 167.284,60.9467 167.5,66.5C 165.933,65.3192 165.099,63.6526 165,61.5C 164.658,63.6192 163.825,63.9526 162.5,62.5C 162.083,58.1829 162.75,54.1829 164.5,50.5 Z"/></g>
<g><path style="opacity:0.978" fill="#ededed" d="M 68.5,37.5 C 69.8333,45.5 69.8333,53.5 68.5,61.5C 67.2273,67.649 66.2273,73.9823 65.5,80.5C 64.2613,80.0576 63.2613,79.3909 62.5,78.5C 61.7222,77.8444 61.0556,77.0111 60.5,76C 61.5465,74.3197 62.2132,72.4864 62.5,70.5C 60.5299,59.9143 60.0299,49.2476 61,38.5C 63.2415,36.2854 65.7415,35.9521 68.5,37.5 Z"/></g>
<g><path style="opacity:1" fill="#dcdcdc" d="M 106.5,54.5 C 106.56,53.9569 106.893,53.6236 107.5,53.5C 108.853,54.6853 110.02,56.0186 111,57.5C 111.333,62.8333 111.667,68.1667 112,73.5C 112.363,77.5439 113.529,81.2106 115.5,84.5C 113.901,84.7678 112.568,84.4345 111.5,83.5C 110.406,81.6406 109.573,79.6406 109,77.5C 108.667,70.5 108.333,63.5 108,56.5C 107.722,55.5842 107.222,54.9175 106.5,54.5 Z"/></g>
<g><path style="opacity:0.678" fill="#b8b8b8" d="M 148.5,35.5 C 150.68,40.1762 152.18,45.1762 153,50.5C 153.824,60.0092 153.658,69.3425 152.5,78.5C 152.666,71.1591 152.5,63.8258 152,56.5C 150.414,49.5624 149.247,42.5624 148.5,35.5 Z"/></g>
<g><path style="opacity:0.993" fill="#d7d7d7" d="M 162.5,44.5 C 160.171,48.8271 158.838,53.4938 158.5,58.5C 158.54,60.4289 158.873,62.2622 159.5,64C 161.875,66.4067 162.875,65.9067 162.5,62.5C 163.825,63.9526 164.658,63.6192 165,61.5C 165.099,63.6526 165.933,65.3192 167.5,66.5C 168.537,67.9303 169.204,69.597 169.5,71.5C 168.173,70.1999 166.84,68.8665 165.5,67.5C 164.901,70.9226 163.568,73.9226 161.5,76.5C 163.817,82.1158 168.151,85.1158 174.5,85.5C 161.88,85.8739 155.88,79.5406 156.5,66.5C 156.588,61.4636 157.088,56.4636 158,51.5C 159.419,49.0071 160.919,46.6737 162.5,44.5 Z"/></g>
<g><path style="opacity:0.563" fill="#9d9d9d" d="M 106.5,54.5 C 107.222,54.9175 107.722,55.5842 108,56.5C 108.333,63.5 108.667,70.5 109,77.5C 109.573,79.6406 110.406,81.6406 111.5,83.5C 109.376,81.9408 107.709,79.9408 106.5,77.5C 106.5,75.8333 106.5,74.1667 106.5,72.5C 106.821,66.9738 106.488,61.6405 105.5,56.5C 105.328,55.5084 105.662,54.8417 106.5,54.5 Z"/></g>
<g><path style="opacity:0.113" fill="#ababab" d="M 186.5,42.5 C 186.5,46.1667 186.5,49.8333 186.5,53.5C 188.144,53.2865 189.644,53.6198 191,54.5C 191.667,58.5 191.667,62.5 191,66.5C 187.97,70.6947 184.47,74.3613 180.5,77.5C 178.265,77.7947 176.265,77.4614 174.5,76.5C 176.062,76.2671 177.395,75.6005 178.5,74.5C 184.108,71.4941 187.441,67.1608 188.5,61.5C 189.468,59.3926 189.802,57.0593 189.5,54.5C 188.167,54.5 186.833,54.5 185.5,54.5C 185.824,50.4454 185.491,46.4454 184.5,42.5C 183.571,43.6888 183.238,45.0222 183.5,46.5C 182.5,46.5 181.5,46.5 180.5,46.5C 180.5,45.5 180.5,44.5 180.5,43.5C 181.117,43.6107 181.617,43.944 182,44.5C 182.333,43.1667 182.667,41.8333 183,40.5C 184.302,41.0848 185.469,41.7515 186.5,42.5 Z"/></g>
<g><path style="opacity:1" fill="#f4f4f4" d="M 197.5,49.5 C 197.833,49.5 198.167,49.5 198.5,49.5C 198.666,54.5111 198.499,59.5111 198,64.5C 194.881,67.027 193.715,70.3604 194.5,74.5C 190.49,82.8409 183.824,86.5076 174.5,85.5C 168.151,85.1158 163.817,82.1158 161.5,76.5C 163.568,73.9226 164.901,70.9226 165.5,67.5C 166.84,68.8665 168.173,70.1999 169.5,71.5C 171.342,73.0516 173.009,74.7182 174.5,76.5C 176.265,77.4614 178.265,77.7947 180.5,77.5C 192.728,72.1386 196.062,63.4719 190.5,51.5C 191.246,50.2638 191.579,48.9305 191.5,47.5C 193.703,47.6036 195.703,48.2702 197.5,49.5 Z"/></g>
<g><path style="opacity:0.953" fill="#b3b3b3" d="M 41.5,54.5 C 42.6225,56.2884 42.7891,58.2884 42,60.5C 38.4539,65.7134 33.9539,69.88 28.5,73C 23.2497,73.1929 18.083,73.6929 13,74.5C 13.746,77.7279 14.5793,81.0612 15.5,84.5C 14.5655,83.4324 14.2322,82.099 14.5,80.5C 12.8333,80.5 11.1667,80.5 9.5,80.5C 9.08639,77.4202 9.08639,74.2535 9.5,71C 21.4752,72.5174 31.1418,68.6841 38.5,59.5C 40.2503,58.3406 41.2503,56.674 41.5,54.5 Z"/></g>
<g><path style="opacity:0.558" fill="#b2b2b2" d="M 58.5,35.5 C 59.6821,48.4348 59.6821,61.4348 58.5,74.5C 58.8333,77.1667 59.1667,79.8333 59.5,82.5C 60.1497,80.8164 61.1497,79.4831 62.5,78.5C 63.2613,79.3909 64.2613,80.0576 65.5,80.5C 66.2273,73.9823 67.2273,67.649 68.5,61.5C 68.5969,69.5751 67.9302,77.5751 66.5,85.5C 65.1667,85.5 63.8333,85.5 62.5,85.5C 62.6602,83.8008 62.4935,82.1341 62,80.5C 61.2081,84.4093 59.0414,85.4093 55.5,83.5C 55.5,81.8333 55.5,80.1667 55.5,78.5C 56.8272,69.2374 57.4938,59.9041 57.5,50.5C 57.1795,45.3054 57.5128,40.3054 58.5,35.5 Z"/></g>
<g><path style="opacity:1" fill="#dbdbdb" d="M 144.5,45.5 C 146.776,45.7565 147.943,47.0898 148,49.5C 148.086,64.2123 148.753,78.879 150,93.5C 150.335,89.2639 151.168,85.2639 152.5,81.5C 152.31,86.3696 151.644,91.0363 150.5,95.5C 149.5,95.5 148.5,95.5 147.5,95.5C 146.767,80.1836 146.267,64.8503 146,49.5C 145.59,48.0993 145.09,46.766 144.5,45.5 Z"/></g>
</svg>
